<mxfile host="65bd71144e">
    <diagram id="gUocFLeQyleekYea29M3" name="ページ1">
        <mxGraphModel dx="4237" dy="3154" grid="1" gridSize="10" guides="1" tooltips="1" connect="1" arrows="1" fold="1" page="1" pageScale="1" pageWidth="827" pageHeight="1169" math="0" shadow="0">
            <root>
                <mxCell id="0"/>
                <mxCell id="1" parent="0"/>
                <mxCell id="2" value="" style="rounded=0;whiteSpace=wrap;html=1;" vertex="1" parent="1">
                    <mxGeometry x="306.96999999999997" y="390" width="238.18" height="430" as="geometry"/>
                </mxCell>
                <mxCell id="7" value="" style="verticalLabelPosition=bottom;shadow=0;dashed=0;align=center;html=1;verticalAlign=top;strokeWidth=1;shape=mxgraph.mockup.graphics.lineChart;strokeColor=none;strokeColor2=#666666;strokeColor3=#008cff;strokeColor4=#dddddd;" vertex="1" parent="1">
                    <mxGeometry x="330" y="590" width="200" height="100" as="geometry"/>
                </mxCell>
                <mxCell id="52" style="edgeStyle=none;html=1;entryX=0;entryY=0.5;entryDx=0;entryDy=0;" edge="1" parent="1" source="8" target="27">
                    <mxGeometry relative="1" as="geometry"/>
                </mxCell>
                <mxCell id="8" value="" style="html=1;verticalLabelPosition=bottom;align=center;labelBackgroundColor=#ffffff;verticalAlign=top;strokeWidth=2;strokeColor=#0080F0;shadow=0;dashed=0;shape=mxgraph.ios7.icons.add;" vertex="1" parent="1">
                    <mxGeometry x="470" y="740" width="60" height="60" as="geometry"/>
                </mxCell>
                <mxCell id="14" value="" style="html=1;verticalLabelPosition=bottom;labelBackgroundColor=#ffffff;verticalAlign=top;shadow=0;dashed=0;strokeWidth=2;shape=mxgraph.ios7.misc.left;strokeColor=#0080f0;" vertex="1" parent="1">
                    <mxGeometry x="330" y="560" width="6" height="12" as="geometry"/>
                </mxCell>
                <mxCell id="16" value="" style="html=1;verticalLabelPosition=bottom;labelBackgroundColor=#ffffff;verticalAlign=top;shadow=0;dashed=0;strokeWidth=2;shape=mxgraph.ios7.misc.right;strokeColor=#0080f0;" vertex="1" parent="1">
                    <mxGeometry x="460" y="560" width="6" height="12" as="geometry"/>
                </mxCell>
                <mxCell id="18" value="2024/1/10 ~ 2024/3/10" style="text;html=1;strokeColor=none;fillColor=none;align=center;verticalAlign=middle;whiteSpace=wrap;rounded=0;" vertex="1" parent="1">
                    <mxGeometry x="340" y="551" width="110" height="30" as="geometry"/>
                </mxCell>
                <mxCell id="20" value="3ヶ月" style="strokeWidth=1;shadow=0;dashed=0;align=center;html=1;shape=mxgraph.mockup.buttons.button;strokeColor=#666666;fontColor=#ffffff;mainText=;buttonStyle=round;fontSize=17;fontStyle=1;fillColor=#008cff;whiteSpace=wrap;" vertex="1" parent="1">
                    <mxGeometry x="480" y="556" width="60" height="20" as="geometry"/>
                </mxCell>
                <mxCell id="22" value="" style="html=1;strokeWidth=1;shadow=0;dashed=0;shape=mxgraph.ios7ui.appBar;fillColor=#ffffff;gradientColor=none;sketch=0;hachureGap=4;pointerEvents=0;fontFamily=Architects Daughter;fontSource=https%3A%2F%2Ffonts.googleapis.com%2Fcss%3Ffamily%3DArchitects%2BDaughter;fontSize=20;" vertex="1" parent="1">
                    <mxGeometry x="311.82" y="390" width="233.33" height="20" as="geometry"/>
                </mxCell>
                <mxCell id="23" value="CARRIER" style="shape=rect;align=left;fontSize=8;spacingLeft=24;fontSize=4;fontColor=#aaaaaa;strokeColor=none;fillColor=none;spacingTop=4;sketch=0;hachureGap=4;pointerEvents=0;fontFamily=Architects Daughter;fontSource=https%3A%2F%2Ffonts.googleapis.com%2Fcss%3Ffamily%3DArchitects%2BDaughter;" vertex="1" parent="22">
                    <mxGeometry y="0.5" width="50" height="13" relative="1" as="geometry">
                        <mxPoint y="-6.5" as="offset"/>
                    </mxGeometry>
                </mxCell>
                <mxCell id="24" value="11:55PM" style="shape=rect;fontSize=8;fontColor=#aaaaaa;strokeColor=none;fillColor=none;spacingTop=4;sketch=0;hachureGap=4;pointerEvents=0;fontFamily=Architects Daughter;fontSource=https%3A%2F%2Ffonts.googleapis.com%2Fcss%3Ffamily%3DArchitects%2BDaughter;" vertex="1" parent="22">
                    <mxGeometry x="0.5" y="0.5" width="50" height="13" relative="1" as="geometry">
                        <mxPoint x="-30" y="-6.5" as="offset"/>
                    </mxGeometry>
                </mxCell>
                <mxCell id="25" value="98%" style="shape=rect;align=right;fontSize=8;spacingRight=19;fontSize=6;fontColor=#aaaaaa;strokeColor=none;fillColor=none;spacingTop=4;sketch=0;hachureGap=4;pointerEvents=0;fontFamily=Architects Daughter;fontSource=https%3A%2F%2Ffonts.googleapis.com%2Fcss%3Ffamily%3DArchitects%2BDaughter;" vertex="1" parent="22">
                    <mxGeometry x="1" y="0.5" width="45" height="13" relative="1" as="geometry">
                        <mxPoint x="-45" y="-6.5" as="offset"/>
                    </mxGeometry>
                </mxCell>
                <mxCell id="27" value="" style="rounded=0;whiteSpace=wrap;html=1;" vertex="1" parent="1">
                    <mxGeometry x="710" y="760" width="238.18" height="430" as="geometry"/>
                </mxCell>
                <mxCell id="32" value="" style="html=1;strokeWidth=1;shadow=0;dashed=0;shape=mxgraph.ios7ui.appBar;fillColor=#ffffff;gradientColor=none;sketch=0;hachureGap=4;pointerEvents=0;fontFamily=Architects Daughter;fontSource=https%3A%2F%2Ffonts.googleapis.com%2Fcss%3Ffamily%3DArchitects%2BDaughter;fontSize=20;" vertex="1" parent="1">
                    <mxGeometry x="710" y="760" width="233.33" height="20" as="geometry"/>
                </mxCell>
                <mxCell id="33" value="CARRIER" style="shape=rect;align=left;fontSize=8;spacingLeft=24;fontSize=4;fontColor=#aaaaaa;strokeColor=none;fillColor=none;spacingTop=4;sketch=0;hachureGap=4;pointerEvents=0;fontFamily=Architects Daughter;fontSource=https%3A%2F%2Ffonts.googleapis.com%2Fcss%3Ffamily%3DArchitects%2BDaughter;" vertex="1" parent="32">
                    <mxGeometry y="0.5" width="50" height="13" relative="1" as="geometry">
                        <mxPoint y="-6.5" as="offset"/>
                    </mxGeometry>
                </mxCell>
                <mxCell id="34" value="11:55PM" style="shape=rect;fontSize=8;fontColor=#aaaaaa;strokeColor=none;fillColor=none;spacingTop=4;sketch=0;hachureGap=4;pointerEvents=0;fontFamily=Architects Daughter;fontSource=https%3A%2F%2Ffonts.googleapis.com%2Fcss%3Ffamily%3DArchitects%2BDaughter;" vertex="1" parent="32">
                    <mxGeometry x="0.5" y="0.5" width="50" height="13" relative="1" as="geometry">
                        <mxPoint x="-30" y="-6.5" as="offset"/>
                    </mxGeometry>
                </mxCell>
                <mxCell id="35" value="98%" style="shape=rect;align=right;fontSize=8;spacingRight=19;fontSize=6;fontColor=#aaaaaa;strokeColor=none;fillColor=none;spacingTop=4;sketch=0;hachureGap=4;pointerEvents=0;fontFamily=Architects Daughter;fontSource=https%3A%2F%2Ffonts.googleapis.com%2Fcss%3Ffamily%3DArchitects%2BDaughter;" vertex="1" parent="32">
                    <mxGeometry x="1" y="0.5" width="45" height="13" relative="1" as="geometry">
                        <mxPoint x="-45" y="-6.5" as="offset"/>
                    </mxGeometry>
                </mxCell>
                <mxCell id="36" value="ホーム" style="text;html=1;strokeColor=none;fillColor=none;align=center;verticalAlign=middle;whiteSpace=wrap;rounded=0;" vertex="1" parent="1">
                    <mxGeometry x="396.06" y="410" width="60" height="30" as="geometry"/>
                </mxCell>
                <mxCell id="37" value="記録" style="text;html=1;strokeColor=none;fillColor=none;align=center;verticalAlign=middle;whiteSpace=wrap;rounded=0;" vertex="1" parent="1">
                    <mxGeometry x="796.6700000000001" y="780" width="60" height="30" as="geometry"/>
                </mxCell>
                <mxCell id="45" value="" style="rounded=0;whiteSpace=wrap;html=1;" vertex="1" parent="1">
                    <mxGeometry x="810" y="840" width="106.67" height="30" as="geometry"/>
                </mxCell>
                <mxCell id="46" value="日付" style="text;html=1;strokeColor=none;fillColor=none;align=center;verticalAlign=middle;whiteSpace=wrap;rounded=0;" vertex="1" parent="1">
                    <mxGeometry x="710" y="840" width="60" height="30" as="geometry"/>
                </mxCell>
                <mxCell id="47" value="" style="rounded=0;whiteSpace=wrap;html=1;" vertex="1" parent="1">
                    <mxGeometry x="810" y="880" width="106.67" height="30" as="geometry"/>
                </mxCell>
                <mxCell id="48" value="体重" style="text;html=1;strokeColor=none;fillColor=none;align=center;verticalAlign=middle;whiteSpace=wrap;rounded=0;" vertex="1" parent="1">
                    <mxGeometry x="710" y="880" width="60" height="30" as="geometry"/>
                </mxCell>
                <mxCell id="49" value="kg" style="text;html=1;strokeColor=none;fillColor=none;align=center;verticalAlign=middle;whiteSpace=wrap;rounded=0;" vertex="1" parent="1">
                    <mxGeometry x="900.0000000000001" y="880" width="60" height="30" as="geometry"/>
                </mxCell>
                <mxCell id="50" value="" style="html=1;verticalLabelPosition=bottom;labelBackgroundColor=#ffffff;verticalAlign=top;shadow=0;dashed=0;strokeWidth=2;shape=mxgraph.ios7.misc.check;strokeColor=#0080f0;" vertex="1" parent="1">
                    <mxGeometry x="916.67" y="785" width="25" height="20" as="geometry"/>
                </mxCell>
                <mxCell id="51" value="" style="html=1;verticalLabelPosition=bottom;labelBackgroundColor=#ffffff;verticalAlign=top;shadow=0;dashed=0;strokeWidth=2;shape=mxgraph.ios7.misc.flagged;strokeColor=#0080f0;rotation=45;" vertex="1" parent="1">
                    <mxGeometry x="720" y="785" width="20" height="20" as="geometry"/>
                </mxCell>
                <mxCell id="118" style="edgeStyle=none;html=1;" edge="1" parent="1" source="53" target="106">
                    <mxGeometry relative="1" as="geometry"/>
                </mxCell>
                <mxCell id="53" value="" style="html=1;verticalLabelPosition=bottom;align=center;labelBackgroundColor=#ffffff;verticalAlign=top;strokeWidth=2;strokeColor=#0080F0;shadow=0;dashed=0;shape=mxgraph.ios7.icons.settings;" vertex="1" parent="1">
                    <mxGeometry x="311.82" y="420" width="30" height="30" as="geometry"/>
                </mxCell>
                <mxCell id="54" value="" style="rounded=0;whiteSpace=wrap;html=1;" vertex="1" parent="1">
                    <mxGeometry x="1070" y="260" width="238.18" height="430" as="geometry"/>
                </mxCell>
                <mxCell id="55" value="" style="html=1;strokeWidth=1;shadow=0;dashed=0;shape=mxgraph.ios7ui.appBar;fillColor=#ffffff;gradientColor=none;sketch=0;hachureGap=4;pointerEvents=0;fontFamily=Architects Daughter;fontSource=https%3A%2F%2Ffonts.googleapis.com%2Fcss%3Ffamily%3DArchitects%2BDaughter;fontSize=20;" vertex="1" parent="1">
                    <mxGeometry x="1070.01" y="260" width="233.33" height="20" as="geometry"/>
                </mxCell>
                <mxCell id="56" value="CARRIER" style="shape=rect;align=left;fontSize=8;spacingLeft=24;fontSize=4;fontColor=#aaaaaa;strokeColor=none;fillColor=none;spacingTop=4;sketch=0;hachureGap=4;pointerEvents=0;fontFamily=Architects Daughter;fontSource=https%3A%2F%2Ffonts.googleapis.com%2Fcss%3Ffamily%3DArchitects%2BDaughter;" vertex="1" parent="55">
                    <mxGeometry y="0.5" width="50" height="13" relative="1" as="geometry">
                        <mxPoint y="-6.5" as="offset"/>
                    </mxGeometry>
                </mxCell>
                <mxCell id="57" value="11:55PM" style="shape=rect;fontSize=8;fontColor=#aaaaaa;strokeColor=none;fillColor=none;spacingTop=4;sketch=0;hachureGap=4;pointerEvents=0;fontFamily=Architects Daughter;fontSource=https%3A%2F%2Ffonts.googleapis.com%2Fcss%3Ffamily%3DArchitects%2BDaughter;" vertex="1" parent="55">
                    <mxGeometry x="0.5" y="0.5" width="50" height="13" relative="1" as="geometry">
                        <mxPoint x="-30" y="-6.5" as="offset"/>
                    </mxGeometry>
                </mxCell>
                <mxCell id="58" value="98%" style="shape=rect;align=right;fontSize=8;spacingRight=19;fontSize=6;fontColor=#aaaaaa;strokeColor=none;fillColor=none;spacingTop=4;sketch=0;hachureGap=4;pointerEvents=0;fontFamily=Architects Daughter;fontSource=https%3A%2F%2Ffonts.googleapis.com%2Fcss%3Ffamily%3DArchitects%2BDaughter;" vertex="1" parent="55">
                    <mxGeometry x="1" y="0.5" width="45" height="13" relative="1" as="geometry">
                        <mxPoint x="-45" y="-6.5" as="offset"/>
                    </mxGeometry>
                </mxCell>
                <mxCell id="60" value="目標設定" style="text;html=1;strokeColor=none;fillColor=none;align=center;verticalAlign=middle;whiteSpace=wrap;rounded=0;" vertex="1" parent="1">
                    <mxGeometry x="1158.33" y="290" width="60" height="30" as="geometry"/>
                </mxCell>
                <mxCell id="61" value="" style="html=1;verticalLabelPosition=bottom;labelBackgroundColor=#ffffff;verticalAlign=top;shadow=0;dashed=0;strokeWidth=2;shape=mxgraph.ios7.misc.check;strokeColor=#0080f0;" vertex="1" parent="1">
                    <mxGeometry x="1278.33" y="295" width="25" height="20" as="geometry"/>
                </mxCell>
                <mxCell id="62" value="" style="html=1;verticalLabelPosition=bottom;labelBackgroundColor=#ffffff;verticalAlign=top;shadow=0;dashed=0;strokeWidth=2;shape=mxgraph.ios7.misc.left;strokeColor=#0080f0;" vertex="1" parent="1">
                    <mxGeometry x="1082.5" y="290" width="15" height="30" as="geometry"/>
                </mxCell>
                <mxCell id="64" value="" style="rounded=0;whiteSpace=wrap;html=1;" vertex="1" parent="1">
                    <mxGeometry x="1170.01" y="350" width="106.67" height="30" as="geometry"/>
                </mxCell>
                <mxCell id="65" value="目標体重" style="text;html=1;strokeColor=none;fillColor=none;align=center;verticalAlign=middle;whiteSpace=wrap;rounded=0;" vertex="1" parent="1">
                    <mxGeometry x="1070.01" y="350" width="60" height="30" as="geometry"/>
                </mxCell>
                <mxCell id="66" value="kg" style="text;html=1;strokeColor=none;fillColor=none;align=center;verticalAlign=middle;whiteSpace=wrap;rounded=0;" vertex="1" parent="1">
                    <mxGeometry x="1260.0100000000002" y="350" width="60" height="30" as="geometry"/>
                </mxCell>
                <mxCell id="67" value="" style="rounded=0;whiteSpace=wrap;html=1;" vertex="1" parent="1">
                    <mxGeometry x="707.5699999999999" y="250" width="238.18" height="430" as="geometry"/>
                </mxCell>
                <mxCell id="68" value="設定" style="text;html=1;strokeColor=none;fillColor=none;align=center;verticalAlign=middle;whiteSpace=wrap;rounded=0;" vertex="1" parent="1">
                    <mxGeometry x="790" y="265" width="60" height="30" as="geometry"/>
                </mxCell>
                <mxCell id="69" value="" style="shape=rect;strokeColor=none;fillColor=#ffffff;gradientColor=none;shadow=0;" vertex="1" parent="1">
                    <mxGeometry x="730" y="310" width="191.33" height="70" as="geometry"/>
                </mxCell>
                <mxCell id="70" value="ステータス" style="shape=rect;strokeColor=none;fontSize=10;fontColor=#000000;resizeWidth=1;align=left;spacingTop=2;spacingLeft=5;" vertex="1" parent="69">
                    <mxGeometry width="191.33" height="20" relative="1" as="geometry"/>
                </mxCell>
                <mxCell id="71" value="Label" style="shape=mxgraph.ios7.misc.right;strokeColor=#666666;labelPosition=left;verticalLabelPosition=middle;align=right;verticalAlign=middle;fontSize=10;spacingRight=4;fontColor=#999999;" vertex="1" parent="70">
                    <mxGeometry x="1" y="0.5" width="5" height="10" relative="1" as="geometry">
                        <mxPoint x="-15" y="-5" as="offset"/>
                    </mxGeometry>
                </mxCell>
                <mxCell id="102" style="edgeStyle=none;html=1;entryX=0;entryY=0.5;entryDx=0;entryDy=0;" edge="1" parent="70" source="71" target="88">
                    <mxGeometry relative="1" as="geometry"/>
                </mxCell>
                <mxCell id="72" value="目標体重" style="shape=rect;strokeColor=none;fontSize=10;fontColor=#000000;resizeWidth=1;align=left;spacingTop=2;spacingLeft=5;" vertex="1" parent="69">
                    <mxGeometry width="191.33" height="20" relative="1" as="geometry">
                        <mxPoint y="20" as="offset"/>
                    </mxGeometry>
                </mxCell>
                <mxCell id="73" value="Label" style="shape=mxgraph.ios7.misc.right;strokeColor=#666666;labelPosition=left;verticalLabelPosition=middle;align=right;verticalAlign=middle;fontSize=10;spacingRight=4;fontColor=#999999;" vertex="1" parent="72">
                    <mxGeometry x="1" y="0.5" width="5" height="10" relative="1" as="geometry">
                        <mxPoint x="-15" y="-5" as="offset"/>
                    </mxGeometry>
                </mxCell>
                <mxCell id="86" style="edgeStyle=none;html=1;entryX=0;entryY=0.5;entryDx=0;entryDy=0;" edge="1" parent="72" source="73" target="54">
                    <mxGeometry relative="1" as="geometry"/>
                </mxCell>
                <mxCell id="88" value="" style="rounded=0;whiteSpace=wrap;html=1;" vertex="1" parent="1">
                    <mxGeometry x="1070" y="-210" width="238.18" height="430" as="geometry"/>
                </mxCell>
                <mxCell id="89" value="" style="html=1;strokeWidth=1;shadow=0;dashed=0;shape=mxgraph.ios7ui.appBar;fillColor=#ffffff;gradientColor=none;sketch=0;hachureGap=4;pointerEvents=0;fontFamily=Architects Daughter;fontSource=https%3A%2F%2Ffonts.googleapis.com%2Fcss%3Ffamily%3DArchitects%2BDaughter;fontSize=20;" vertex="1" parent="1">
                    <mxGeometry x="1070.01" y="-210" width="233.33" height="20" as="geometry"/>
                </mxCell>
                <mxCell id="90" value="CARRIER" style="shape=rect;align=left;fontSize=8;spacingLeft=24;fontSize=4;fontColor=#aaaaaa;strokeColor=none;fillColor=none;spacingTop=4;sketch=0;hachureGap=4;pointerEvents=0;fontFamily=Architects Daughter;fontSource=https%3A%2F%2Ffonts.googleapis.com%2Fcss%3Ffamily%3DArchitects%2BDaughter;" vertex="1" parent="89">
                    <mxGeometry y="0.5" width="50" height="13" relative="1" as="geometry">
                        <mxPoint y="-6.5" as="offset"/>
                    </mxGeometry>
                </mxCell>
                <mxCell id="91" value="11:55PM" style="shape=rect;fontSize=8;fontColor=#aaaaaa;strokeColor=none;fillColor=none;spacingTop=4;sketch=0;hachureGap=4;pointerEvents=0;fontFamily=Architects Daughter;fontSource=https%3A%2F%2Ffonts.googleapis.com%2Fcss%3Ffamily%3DArchitects%2BDaughter;" vertex="1" parent="89">
                    <mxGeometry x="0.5" y="0.5" width="50" height="13" relative="1" as="geometry">
                        <mxPoint x="-30" y="-6.5" as="offset"/>
                    </mxGeometry>
                </mxCell>
                <mxCell id="92" value="98%" style="shape=rect;align=right;fontSize=8;spacingRight=19;fontSize=6;fontColor=#aaaaaa;strokeColor=none;fillColor=none;spacingTop=4;sketch=0;hachureGap=4;pointerEvents=0;fontFamily=Architects Daughter;fontSource=https%3A%2F%2Ffonts.googleapis.com%2Fcss%3Ffamily%3DArchitects%2BDaughter;" vertex="1" parent="89">
                    <mxGeometry x="1" y="0.5" width="45" height="13" relative="1" as="geometry">
                        <mxPoint x="-45" y="-6.5" as="offset"/>
                    </mxGeometry>
                </mxCell>
                <mxCell id="93" value="ステータス設定" style="text;html=1;strokeColor=none;fillColor=none;align=center;verticalAlign=middle;whiteSpace=wrap;rounded=0;" vertex="1" parent="1">
                    <mxGeometry x="1120" y="-180" width="130" height="30" as="geometry"/>
                </mxCell>
                <mxCell id="94" value="" style="html=1;verticalLabelPosition=bottom;labelBackgroundColor=#ffffff;verticalAlign=top;shadow=0;dashed=0;strokeWidth=2;shape=mxgraph.ios7.misc.check;strokeColor=#0080f0;" vertex="1" parent="1">
                    <mxGeometry x="1278.33" y="-175" width="25" height="20" as="geometry"/>
                </mxCell>
                <mxCell id="95" value="" style="html=1;verticalLabelPosition=bottom;labelBackgroundColor=#ffffff;verticalAlign=top;shadow=0;dashed=0;strokeWidth=2;shape=mxgraph.ios7.misc.left;strokeColor=#0080f0;" vertex="1" parent="1">
                    <mxGeometry x="1082.5" y="-180" width="15" height="30" as="geometry"/>
                </mxCell>
                <mxCell id="96" value="" style="rounded=0;whiteSpace=wrap;html=1;" vertex="1" parent="1">
                    <mxGeometry x="1170.01" y="-120" width="106.67" height="30" as="geometry"/>
                </mxCell>
                <mxCell id="97" value="性別" style="text;html=1;strokeColor=none;fillColor=none;align=center;verticalAlign=middle;whiteSpace=wrap;rounded=0;" vertex="1" parent="1">
                    <mxGeometry x="1070.01" y="-120" width="60" height="30" as="geometry"/>
                </mxCell>
                <mxCell id="99" value="身長" style="text;html=1;strokeColor=none;fillColor=none;align=center;verticalAlign=middle;whiteSpace=wrap;rounded=0;" vertex="1" parent="1">
                    <mxGeometry x="1070" y="-80" width="60" height="30" as="geometry"/>
                </mxCell>
                <mxCell id="100" value="" style="rounded=0;whiteSpace=wrap;html=1;" vertex="1" parent="1">
                    <mxGeometry x="1170" y="-80" width="106.67" height="30" as="geometry"/>
                </mxCell>
                <mxCell id="101" value="cm" style="text;html=1;strokeColor=none;fillColor=none;align=center;verticalAlign=middle;whiteSpace=wrap;rounded=0;" vertex="1" parent="1">
                    <mxGeometry x="1260.83" y="-80" width="60" height="30" as="geometry"/>
                </mxCell>
                <mxCell id="105" style="edgeStyle=none;html=1;entryX=0;entryY=0.5;entryDx=0;entryDy=0;" edge="1" parent="1" source="104" target="67">
                    <mxGeometry relative="1" as="geometry"/>
                </mxCell>
                <mxCell id="104" value="" style="html=1;verticalLabelPosition=bottom;align=center;labelBackgroundColor=#ffffff;verticalAlign=top;strokeWidth=2;strokeColor=#0080F0;shadow=0;dashed=0;shape=mxgraph.ios7.icons.user;" vertex="1" parent="1">
                    <mxGeometry x="510" y="420" width="30" height="30" as="geometry"/>
                </mxCell>
                <mxCell id="106" value="" style="rounded=0;whiteSpace=wrap;html=1;" vertex="1" parent="1">
                    <mxGeometry x="-190.0000000000001" y="250" width="238.18" height="430" as="geometry"/>
                </mxCell>
                <mxCell id="107" value="設定" style="text;html=1;strokeColor=none;fillColor=none;align=center;verticalAlign=middle;whiteSpace=wrap;rounded=0;" vertex="1" parent="1">
                    <mxGeometry x="-107.57000000000005" y="265" width="60" height="30" as="geometry"/>
                </mxCell>
                <mxCell id="108" value="" style="shape=rect;strokeColor=none;fillColor=#ffffff;gradientColor=none;shadow=0;" vertex="1" parent="1">
                    <mxGeometry x="-167.57000000000005" y="310" width="191.33" height="70" as="geometry"/>
                </mxCell>
                <mxCell id="109" value="言語設定" style="shape=rect;strokeColor=none;fontSize=10;fontColor=#000000;resizeWidth=1;align=left;spacingTop=2;spacingLeft=5;" vertex="1" parent="108">
                    <mxGeometry width="191.33" height="20" relative="1" as="geometry"/>
                </mxCell>
                <mxCell id="110" value="Label" style="shape=mxgraph.ios7.misc.right;strokeColor=#666666;labelPosition=left;verticalLabelPosition=middle;align=right;verticalAlign=middle;fontSize=10;spacingRight=4;fontColor=#999999;" vertex="1" parent="109">
                    <mxGeometry x="1" y="0.5" width="5" height="10" relative="1" as="geometry">
                        <mxPoint x="-15" y="-5" as="offset"/>
                    </mxGeometry>
                </mxCell>
                <mxCell id="111" style="edgeStyle=none;html=1;entryX=0;entryY=0.5;entryDx=0;entryDy=0;" edge="1" parent="109" source="110">
                    <mxGeometry relative="1" as="geometry"/>
                </mxCell>
                <mxCell id="112" value="利用規約" style="shape=rect;strokeColor=none;fontSize=10;fontColor=#000000;resizeWidth=1;align=left;spacingTop=2;spacingLeft=5;" vertex="1" parent="108">
                    <mxGeometry width="191.33" height="20" relative="1" as="geometry">
                        <mxPoint y="20" as="offset"/>
                    </mxGeometry>
                </mxCell>
                <mxCell id="113" value="Label" style="shape=mxgraph.ios7.misc.right;strokeColor=#666666;labelPosition=left;verticalLabelPosition=middle;align=right;verticalAlign=middle;fontSize=10;spacingRight=4;fontColor=#999999;" vertex="1" parent="112">
                    <mxGeometry x="1" y="0.5" width="5" height="10" relative="1" as="geometry">
                        <mxPoint x="-15" y="-5" as="offset"/>
                    </mxGeometry>
                </mxCell>
                <mxCell id="114" style="edgeStyle=none;html=1;entryX=0;entryY=0.5;entryDx=0;entryDy=0;" edge="1" parent="112" source="113">
                    <mxGeometry relative="1" as="geometry"/>
                </mxCell>
                <mxCell id="115" value="アプリバージョン" style="shape=rect;strokeColor=none;fontSize=10;fontColor=#000000;resizeWidth=1;align=left;spacingTop=2;spacingLeft=5;" vertex="1" parent="108">
                    <mxGeometry x="-3.410605131648481e-13" y="40" width="191.33" height="20" as="geometry"/>
                </mxCell>
                <mxCell id="116" value="Label" style="shape=mxgraph.ios7.misc.right;strokeColor=#666666;labelPosition=left;verticalLabelPosition=middle;align=right;verticalAlign=middle;fontSize=10;spacingRight=4;fontColor=#999999;" vertex="1" parent="115">
                    <mxGeometry x="1" y="0.5" width="5" height="10" relative="1" as="geometry">
                        <mxPoint x="-15" y="-5" as="offset"/>
                    </mxGeometry>
                </mxCell>
                <mxCell id="117" style="edgeStyle=none;html=1;entryX=0;entryY=0.5;entryDx=0;entryDy=0;" edge="1" parent="115" source="116">
                    <mxGeometry relative="1" as="geometry"/>
                </mxCell>
            </root>
        </mxGraphModel>
    </diagram>
</mxfile>